<mxfile host="Electron" modified="2023-09-21T00:08:28.973Z" agent="Mozilla/5.0 (Windows NT 10.0; Win64; x64) AppleWebKit/537.36 (KHTML, like Gecko) draw.io/21.5.1 Chrome/112.0.5615.204 Electron/24.6.0 Safari/537.36" etag="i9AjNmoiOF4fF1mJjFxL" version="21.5.1" type="device">
  <diagram name="第 1 页" id="_BtS3QmDhtvf_UYbiPGz">
    <mxGraphModel dx="941" dy="692" grid="1" gridSize="10" guides="1" tooltips="1" connect="1" arrows="1" fold="1" page="1" pageScale="1" pageWidth="827" pageHeight="1169" math="0" shadow="0">
      <root>
        <mxCell id="0" />
        <mxCell id="1" parent="0" />
        <mxCell id="BWEsBsDf2_DGFJDR75OR-3" style="edgeStyle=orthogonalEdgeStyle;rounded=0;orthogonalLoop=1;jettySize=auto;html=1;exitX=0.5;exitY=1;exitDx=0;exitDy=0;entryX=0.5;entryY=0;entryDx=0;entryDy=0;endArrow=none;endFill=0;" parent="1" source="qY5zu6U4iB_oYfRbDz2J-9" target="BWEsBsDf2_DGFJDR75OR-1" edge="1">
          <mxGeometry relative="1" as="geometry" />
        </mxCell>
        <mxCell id="BWEsBsDf2_DGFJDR75OR-4" style="edgeStyle=orthogonalEdgeStyle;rounded=0;orthogonalLoop=1;jettySize=auto;html=1;exitX=0.5;exitY=1;exitDx=0;exitDy=0;endArrow=none;endFill=0;" parent="1" source="qY5zu6U4iB_oYfRbDz2J-9" target="BWEsBsDf2_DGFJDR75OR-2" edge="1">
          <mxGeometry relative="1" as="geometry" />
        </mxCell>
        <mxCell id="S5ROonhrSd6hBRHY6OwN-2" style="edgeStyle=orthogonalEdgeStyle;rounded=0;orthogonalLoop=1;jettySize=auto;html=1;exitX=0.5;exitY=1;exitDx=0;exitDy=0;entryX=0.5;entryY=0;entryDx=0;entryDy=0;endArrow=none;endFill=0;" edge="1" parent="1" source="qY5zu6U4iB_oYfRbDz2J-9" target="S5ROonhrSd6hBRHY6OwN-1">
          <mxGeometry relative="1" as="geometry" />
        </mxCell>
        <mxCell id="qY5zu6U4iB_oYfRbDz2J-9" value="工艺信息" style="rounded=0;whiteSpace=wrap;html=1;" parent="1" vertex="1">
          <mxGeometry x="355" y="90" width="120" height="60" as="geometry" />
        </mxCell>
        <mxCell id="BWEsBsDf2_DGFJDR75OR-1" value="工艺路线表管理" style="rounded=0;whiteSpace=wrap;html=1;" parent="1" vertex="1">
          <mxGeometry x="200" y="200" width="120" height="60" as="geometry" />
        </mxCell>
        <mxCell id="BWEsBsDf2_DGFJDR75OR-2" value="工艺路线表外部接口" style="rounded=0;whiteSpace=wrap;html=1;" parent="1" vertex="1">
          <mxGeometry x="510" y="200" width="120" height="60" as="geometry" />
        </mxCell>
        <mxCell id="S5ROonhrSd6hBRHY6OwN-1" value="工作站管理" style="rounded=0;whiteSpace=wrap;html=1;" vertex="1" parent="1">
          <mxGeometry x="355" y="200" width="120" height="60" as="geometry" />
        </mxCell>
      </root>
    </mxGraphModel>
  </diagram>
</mxfile>
